<svg id="visual" viewBox="0 0 1140 540" width="1140" height="540" xmlns="http://www.w3.org/2000/svg" xmlns:xlink="http://www.w3.org/1999/xlink" version="1.1"><rect x="0" y="0" width="1140" height="540" fill="#ffffff"></rect><path d="M0 119L27.2 126C54.3 133 108.7 147 163 150C217.3 153 271.7 145 326 132.8C380.3 120.7 434.7 104.3 488.8 107.3C543 110.3 597 132.7 651.2 138.2C705.3 143.7 759.7 132.3 814 117.7C868.3 103 922.7 85 977 85.3C1031.3 85.7 1085.7 104.3 1112.8 113.7L1140 123L1140 0L1112.8 0C1085.7 0 1031.3 0 977 0C922.7 0 868.3 0 814 0C759.7 0 705.3 0 651.2 0C597 0 543 0 488.8 0C434.7 0 380.3 0 326 0C271.7 0 217.3 0 163 0C108.7 0 54.3 0 27.2 0L0 0Z" fill="#EFF1F1" stroke-linecap="round" stroke-linejoin="miter"></path></svg>