<svg id="visual" viewBox="0 0 1400 600" width="1400" height="600" xmlns="http://www.w3.org/2000/svg" xmlns:xlink="http://www.w3.org/1999/xlink" version="1.1"><rect x="0" y="0" width="1400" height="600" fill="#ffffff"></rect><path d="M0 322L29.2 322.3C58.3 322.7 116.7 323.3 175 317C233.3 310.7 291.7 297.3 350 280.3C408.3 263.3 466.7 242.7 525 252.5C583.3 262.3 641.7 302.7 700 302.3C758.3 302 816.7 261 875 259.2C933.3 257.3 991.7 294.7 1050 299.2C1108.3 303.7 1166.7 275.3 1225 254.2C1283.3 233 1341.7 219 1370.8 212L1400 205L1400 0L1370.8 0C1341.7 0 1283.3 0 1225 0C1166.7 0 1108.3 0 1050 0C991.7 0 933.3 0 875 0C816.7 0 758.3 0 700 0C641.7 0 583.3 0 525 0C466.7 0 408.3 0 350 0C291.7 0 233.3 0 175 0C116.7 0 58.3 0 29.2 0L0 0Z" fill="#EFF1F1" stroke-linecap="round" stroke-linejoin="miter"></path></svg>
